<?xml version="1.0" encoding="UTF-8"?>
<svg id="_Слой_1" data-name="Слой 1" xmlns="http://www.w3.org/2000/svg" viewBox="0 0 2268.34 1204.69">
  <defs>
    <style>
      .cls-1 {
        fill: #ff8fb2;
      }

      .cls-1, .cls-2, .cls-3, .cls-4 {
        stroke-width: 0px;
      }

      .cls-2 {
        fill: #242424;
      }

      .cls-3 {
        fill: #f18eaf;
      }

      .cls-4 {
        fill: #fff;
      }
    </style>
  </defs>
  <g>
    <path class="cls-2" d="M254.24,858.87c-50.12,2.04-101.37,7.28-146.53,29.1-52.53,25.38-94.34,74.62-105.11,131.96-10.77,57.34,12.46,121.14,60.9,153.65,39.05,26.21,89.08,30.56,135.81,25.27,23.36-2.65,102.86-31.21,178.93-30.26,76.07.95,148.72,31.41,172.08,34.06,46.73,5.3,96.76.94,135.81-25.27,48.44-32.51,71.67-96.31,60.9-153.65-10.77-57.34-52.59-106.57-105.11-131.96-45.16-21.82-96.41-27.06-146.53-29.1-14.01-.57-64.7,2.57-117.15,1.55-51.22-.99-104.14-6.16-123.99-5.35Z"/>
    <path class="cls-1" d="M694.95,1170.42c-2.53-7.23-6.54-14.18-10.74-20.57-53.34-81.04-150.29-131.38-247.26-128.39-21.17.65-45.36,5.81-56.6,22.99-10.31-19.56-36.02-25.26-58.35-25.95-96.97-2.99-193.92,47.35-247.26,128.39-5.32,8.09-10.34,17.08-12.42,26.39.17.12.34.24.51.35,39.05,26.21,89.08,30.56,135.81,25.27,23.36-2.65,102.86-31.21,178.93-30.26,76.07.95,148.72,31.41,172.08,34.06,46.73,5.3,96.76.94,135.81-25.27,3.28-2.2,6.44-4.55,9.49-7.03Z"/>
    <g>
      <path class="cls-4" d="M86.08,1186.26c34.6,14.87,74.63,16.92,112.48,12.63,19.81-2.25,80-23.13,144.23-28.84-4.61-14.07-11.39-27.43-20.13-39.39-5.07-6.93-11.25-13.71-19.5-16.07-8.7-2.49-18.3.56-25.42,6.15s-12.1,13.45-16.24,21.5c-3.37,6.56-6.27,13.36-8.69,20.33-2.42-6.97-5.32-13.77-8.69-20.33-4.14-8.05-9.12-15.91-16.24-21.5-7.12-5.59-16.72-8.64-25.42-6.15-8.25,2.36-14.43,9.14-19.5,16.07-8.36,11.44-14.95,24.17-19.54,37.57-.09-1.08-.17-2-.24-2.69-1.1-10.94-3.59-22.21-9.4-31.38-1.47-2.32-3.15-4.51-5.08-6.52-9.53-9.96-26.42-13.85-37.34-5.43-5.39,4.16-8.56,10.52-11.25,16.78-6.5,15.14-11.21,31.05-14.03,47.28Z"/>
      <path class="cls-4" d="M604.46,1203.79c-2.35-20.41-7.67-40.47-15.77-59.35-2.68-6.26-5.85-12.62-11.25-16.78-10.91-8.41-27.81-4.52-37.34,5.43-1.93,2.01-3.61,4.2-5.08,6.52-5.8,9.17-8.29,20.44-9.4,31.38-.07.69-.15,1.61-.24,2.69-4.59-13.41-11.17-26.13-19.54-37.57-5.07-6.93-11.25-13.71-19.5-16.07-8.7-2.49-18.3.56-25.42,6.15-7.12,5.59-12.1,13.45-16.24,21.5-3.37,6.56-6.27,13.36-8.69,20.33-2.42-6.97-5.32-13.77-8.69-20.33-4.14-8.05-9.12-15.91-16.24-21.5s-16.72-8.64-25.42-6.15c-8.25,2.36-14.43,9.14-19.5,16.07-7.51,10.28-13.59,21.59-18.07,33.5,9.78-.74,19.63-1.11,29.42-.98,76.07.95,148.72,31.41,172.08,34.06,18.08,2.05,36.65,2.64,54.89,1.1Z"/>
    </g>
    <path class="cls-4" d="M388.69,955.31c8.7,2.49,18.3-.56,25.42-6.15,7.12-5.59,12.1-13.45,16.24-21.5,3.54-6.89,6.57-14.04,9.06-21.38,3.45-10.18,5.87-20.71,7.18-31.37.45-3.65.72-7.45.6-11.19-20.23.54-44.45.98-69.05.5-51.22-.99-104.14-6.16-123.99-5.35-37.59,1.53-75.82,4.86-111.64,15.64-.41.1-2.54.77-4.33,1.34-10.43,3.34-20.65,7.33-30.57,12.12-20.25,9.78-38.89,23.12-54.79,39.09,3.08,11.68,8.21,22.83,15.18,32.7,8.6,12.18,21.28,22.99,36.18,23.42,16.47.48,31.02-12.23,37.86-27.23,2.27-4.98,3.86-10.17,4.99-15.48,1.69-7.9,2.09-27.05,2.48-35.22,4.6,13.75,11.57,37.78,20.13,49.48,5.07,6.93,11.25,13.71,19.5,16.07,8.7,2.49,18.3-.56,25.42-6.15,7.12-5.59,12.1-13.45,16.24-21.5,3.54-6.89,7.2-13.97,9.06-21.38,1.64-6.54,4.19-23.56,5.52-30.18,2.39,6.84,5.82,23.8,8.3,30.61,3.7,10.14,9.12,15.91,16.24,21.5,7.12,5.59,16.72,8.64,25.42,6.15,8.25-2.36,14.43-9.14,19.5-16.07,11.64-15.92,19.83-34.33,24-53.61,6.16,21.31,18.07,42.26,30.35,59.06,5.07,6.93,11.25,13.71,19.5,16.07Z"/>
    <path class="cls-4" d="M642.09,891.75c-25.83-12.48-53.64-19.53-82.1-23.67-.79-.1-1.46-.22-1.88-.27-20.7-2.91-41.72-4.32-62.55-5.17-6.78-.28-22.15.32-42.15.89-.41,4.6-.12,9.38.44,13.92,1.31,10.67,3.73,21.19,7.18,31.37,2.49,7.34,5.52,14.49,9.06,21.38,4.14,8.05,9.12,15.91,16.24,21.5,7.12,5.59,16.72,8.64,25.42,6.15,8.25-2.36,14.43-9.14,19.5-16.07,7.31-10,13.26-20.98,17.71-32.55.4,7.82,1.08,15.64,2.7,23.21,1.14,5.32,2.73,10.51,4.99,15.48,6.83,14.99,21.39,27.71,37.86,27.23,14.9-.43,27.58-11.25,36.18-23.42,11.57-16.39,18.09-36.28,18.52-56.33-2.35-1.26-4.72-2.48-7.12-3.65Z"/>
  </g>
  <path class="cls-3" d="M374.77,131.55c-43.22-.4-71.54,102.76-77.24,116.57-58.89,142.8-69.58,207.64-128.47,350.44-8.44,20.47-14.14,42.17-15.36,64.29-1.64,29.77,11.34,60.36,34.95,78.56s57.46,22.81,84.42,10.09c12.91-6.09,25.94-10.51,38.8-4.32,10.49,5.05,25.79,25.51,62.93,24.38,37.14,1.11,52.45-19.33,62.93-24.38,12.86-6.19,25.89-1.77,38.8,4.32,26.97,12.72,60.81,8.12,84.42-10.09,23.61-18.2,36.59-48.79,34.95-78.56-1.22-22.11-7.38-43.81-15.83-64.29-58.89-142.8-72.37-209.93-131.7-352.55-17.87-42.95-35.48-114.11-73.62-114.46Z"/>
  <g>
    <circle class="cls-4" cx="159.5" cy="229.56" r="123.22"/>
    <path class="cls-2" d="M195.76,199.93c3.12,10.27,6.24,20.54,9.36,30.81,2.98,9.83,18.43,5.64,15.43-4.25s-6.24-20.54-9.36-30.81c-2.98-9.83-18.43-5.64-15.43,4.25h0Z"/>
  </g>
  <g>
    <circle class="cls-4" cx="582.31" cy="224.81" r="123.22"/>
    <path class="cls-2" d="M629.47,280.18c10.32-9.76,20.65-19.53,30.97-29.29,7.5-7.09-3.83-18.39-11.31-11.31-10.32,9.76-20.65,19.53-30.97,29.29-7.5,7.09,3.83,18.39,11.31,11.31h0Z"/>
  </g>
  <path class="cls-2" d="M265.35,69.94c-12.45-3.34-92.61-43.37-95.03-51.12-1.44-4.62,3.34-6.22,13.11-7.56C203.01,8.57,257.15.08,264.76,0c4.26-.04,8.15,0,12.08,3.17,10.92,8.81,8.46,72.13-11.5,66.77Z"/>
  <path class="cls-2" d="M464.17,75.8c12.45-3.34,92.61-43.37,95.03-51.12,1.44-4.62-3.34-6.22-13.11-7.56-19.59-2.69-73.73-11.17-81.34-11.25-4.26-.04-8.15,0-12.08,3.17-10.92,8.81-8.46,72.13,11.5,66.77Z"/>
  <path class="cls-2" d="M924.99,797.46c-3.06,4.28-4.95,9.19-7.05,13.98-2.59,5.91-5.86,11.49-8.97,17.14-7.68,13.99-15.14,28.08-22.28,42.35-6.47,12.93-13.11,25.84-21.46,37.68-7.67,10.88-17.68,20.1-22.98,32.52-1.38,3.24-.63,8,3.59,8.81,7.12,1.37,13.43-1.24,19.54-4.78,8.2-4.74,16.22-9.74,24.48-14.4,18.92-10.67,37.92-21.09,57.35-30.82,9.01-4.51,18.04-8.97,27.09-13.39,4.33-2.11,8.63-4.68,13.08-6.51,6.6-2.71,9.59.62,13.97,5.26,13.41,14.18,27.45,28.69,42.91,40.62,32.03,24.7,68.85,44.8,105.7,61.25,38.19,17.05,77.37,32.73,117.01,46.08,29.11,9.81,59.12,18.86,89.7,22.64,19.44,2.4,39.03,3.77,58.57,5.12,52.2,3.61,104.48,6.09,156.75,8.67,20.88,1.03,41.76,2.02,62.64,3.23,25.16,1.45,50.33,4.8,75.56,4.12,37.65-1,75.36-4.57,112.9-7.27,39.93-2.87,80.01-5.25,119.83-9.45,34.77-3.67,70.75-6.06,104.42-16.01,19.35-5.72,37.89-13.97,55.89-23.02,17.18-8.63,34.28-17.48,48.06-31.15,29.44-29.2,49.29-68.58,66.73-105.68,8.78-18.67,18.06-37.41,24.43-57.06,6.36-19.6,10.03-39.92,12.63-60.33,5.56-43.7,7.78-87.98,10.76-131.92s4.96-86.08-3.93-128.46c-8.39-40.02-29.07-74.86-49.76-109.57s-52.26-62-85.8-83.3c-17.32-11-35.44-21.45-53.68-30.83s-38.97-14.2-58.3-22.08c-19.38-7.9-37.84-17.92-57.15-26-19.58-8.19-40.09-14.32-60.71-19.27-47.73-11.45-97.67-13-146.46-16.63-44.19-3.29-88.48-7.15-132.77-8.73-33.15-1.19-66.62,1.24-99.73,2.76-44.61,2.05-89.21,4.2-133.82,6.24-12.96.59-25.94,1.33-38.92,1.66-31.27.79-61.74-.41-91.34,11.73-8.45,3.46-16.56,7.48-25.17,10.59-9.71,3.52-19.54,6.72-28.99,10.91-18.24,8.09-36.02,19.67-52.1,31.4s-31.77,24.86-46.16,38.71-27.08,29.3-42.29,42.45c-32.43,28.03-69.39,51.05-104.04,76.19-16.77,12.17-30.63,27.49-47.45,39.51-15.94,11.39-28.92,25.41-40.82,40.95-5.26,6.88-9.02,13.82-12.2,21.86-3.79,9.58-8.74,19.05-11.36,29.02-2.3,8.74-3.34,17.74-5.77,26.46-2.76,9.88-5.39,19.36-5.54,29.7-.32,21.14-.6,42.09,3.11,62.92,1.73,9.74,2.76,17.76,7.52,26.58s8.25,17.28,13.31,25.54,11.17,16.03,16.16,24.34c2.44,4.07,3.38,8.76,5.72,12.89,1.8,3.17,4.21,6.07,6.58,8.81,6.49,7.53,12.87,14.46,18.26,22.88,2.06,3.22,3.93,6.3,7.29,8.34,2.92,1.78,6.58,2.24,9.29,4.36,6.01,4.72,14.56-3.72,8.49-8.49-2.81-2.21-5.48-3.51-8.75-4.9-4.45-1.89-5.92-5.48-8.5-9.37-5.18-7.81-11.55-14.21-17.59-21.32s-7.95-15.76-13.2-23.19c-6.09-8.61-11.9-17.51-17.09-26.7-4.26-7.54-8.02-15.51-11.79-23.3-2.26-4.67-2.66-9.66-3.37-14.73-.75-5.35-2.1-10.59-2.71-15.96-1.14-10.08-.69-20.35-.67-30.47.01-11.17-.8-22.41,1.87-33.34,4.44-18.14,7.93-36.6,15.21-53.79,3.72-8.78,6.34-18.04,11.66-26.05,5.8-8.71,13.08-16.52,20.02-24.32,13.14-14.74,30.62-24.42,44.8-38.13s31.25-25.27,47.69-36.96c32.95-23.44,67.78-45.65,96.73-74.1,14.52-14.27,27.54-29.59,43.04-42.91,15.17-13.03,30.78-25.38,47.77-35.97s34.95-19.75,54.46-26.65,36.06-16.11,55.61-20.02c22.5-4.5,45.2-2.83,67.93-3.72,74.41-2.9,148.75-7.46,223.16-10.13,35.54-1.28,70.75.99,106.19,3.39,47.48,3.22,94.95,6.7,142.37,10.62,26.71,2.21,53,5.82,79.03,12.56,20.86,5.4,41.35,12.04,61.01,20.89,18.37,8.27,36.25,17.88,55.2,24.8,20.04,7.31,39.8,13.04,58.54,23.53,17.83,9.98,35.85,19.87,52.8,31.31,16.48,11.13,31.53,24,45.49,38.16,15.11,15.32,25.72,32.29,36.51,50.73,9.55,16.32,19.19,32.53,26.64,49.95,8.35,19.53,13.62,40.18,16.39,61.22,5.58,42.38,1.55,85.37-1.45,127.79-3.02,42.78-4.61,86.37-12.12,128.65-7.4,41.65-25.56,79.84-44.75,117.24-17.97,35.01-39.64,74.24-74.46,94.88-34.8,20.62-72.72,36.04-112.77,42.23-43.43,6.72-87.5,9.92-131.29,13.26-45.93,3.5-91.88,6.85-137.85,9.7-16.42,1.02-32.65,1.97-49.11,1.24-21.91-.97-43.76-3.21-65.67-4.4-47.66-2.57-95.34-4.68-143-7.3-42.83-2.36-86.3-3.64-128.81-9.69-33.1-4.71-65.85-15.64-97.24-26.85-39.12-13.96-78.28-29.33-115.73-47.34-17.9-8.61-34.98-18.5-51.95-28.8-17.63-10.7-35.27-21.75-50.21-36.09-6.84-6.57-13.23-13.59-20.14-20.09-5.84-5.49-11.22-13.53-18.94-16.46s-14.21.66-20.77,3.97c-9.59,4.84-19.31,9.45-28.94,14.23-18.68,9.28-37.11,18.96-55.29,29.18-8.25,4.64-16.68,9.08-24.78,13.97-5.08,3.06-13.04,10.54-19.41,9.31l3.59,8.81c5.13-12.01,14.72-21.02,22.24-31.48,8.7-12.11,15.53-25.43,22.2-38.73s14.16-27.54,21.62-41.13c3.17-5.79,6.61-11.48,9.28-17.53,2.23-5.06,4.16-10.29,7.4-14.82,4.5-6.29-5.9-12.29-10.36-6.06h0Z"/>
</svg>