<?xml version="1.0" encoding="UTF-8"?>
<svg id="_Слой_1" data-name="Слой 1" xmlns="http://www.w3.org/2000/svg" viewBox="0 0 89.41 78.39">
  <defs>
    <style>
      .cls-1 {
        fill: #2276af;
      }

      .cls-1, .cls-2, .cls-3 {
        stroke-width: 0px;
      }

      .cls-3 {
        fill: #fff;
      }
    </style>
  </defs>
  <g>
    <path class="cls-1" d="m79.05,21.51c.08.2.15.4.22.61,1.51,4.24,2.7,8.24,3.41,12.73,1.45,9.2-1.03,18.01-4.47,26.51-3.86,9.54-12.66,14.12-22.46,15.42-5.14.68-10.53.09-15.49-1.44-4.43-1.36-9.24-2.62-13.29-4.92-4.59-2.6-8.17-5.73-10.41-10.61,0,0-3.67-9.49-4.07-11.06-1.75-6.89-2.89-12.27-2.37-18.89.31-3.92,1.99-7.7,3.98-11.07,2.25-3.82,9.21-10.63,13.26-12.51C41.25-.16,60.79-1.9,72.34,11.02c3.01,3.37,5.12,6.28,6.71,10.48Z"/>
    <path class="cls-2" d="m77.74,21.87c1.56,4.17,2.83,8.48,3.56,12.88.78,4.7.49,9.51-.52,14.15-.95,4.39-2.35,8.88-4.26,12.95-1.48,3.17-3.69,5.97-6.49,8.08-5.91,4.47-13.89,6.2-21.18,5.67-4.66-.34-9.12-1.78-13.54-3.2-4.03-1.29-7.89-2.94-11.29-5.51-2.61-1.97-4.89-4.56-6.22-7.57-.8-1.81-1.43-3.72-2.12-5.58-2.36-6.3-4.16-12.9-4.34-19.66-.12-4.64.76-8.78,2.94-12.9,1.57-2.97,3.68-5.45,6.07-7.81,2.22-2.19,4.65-4.44,7.46-5.83,2.97-1.47,6.19-2.53,9.4-3.34,6.68-1.7,13.85-2.17,20.56-.42,7.24,1.88,13.04,6.5,17.17,12.68,1.13,1.69,2.06,3.49,2.79,5.39.62,1.61,3.25.91,2.62-.72-2.89-7.47-8.7-14.29-15.97-17.8C57.64.09,49.98-.56,42.62.42c-6.87.92-14.36,2.94-19.9,7.27-6.1,4.76-11.4,10.96-13.38,18.59-1.16,4.5-.83,9.39-.12,13.93.56,3.59,1.31,7.25,2.52,10.68,1.71,4.83,3.23,10.13,6.48,14.19,5.61,7,14.88,9.83,23.21,12.02s17.73,1.62,25.66-2.2c3.22-1.55,6.19-3.75,8.48-6.51,2.79-3.36,4.34-7.36,5.75-11.44,1.61-4.67,2.79-9.51,3.07-14.46s-.54-9.89-1.87-14.66c-.63-2.25-1.35-4.48-2.17-6.67-.61-1.62-3.23-.92-2.62.72Z"/>
  </g>
  <path class="cls-2" d="m37.1,42.65c1.15,1.64,2.48,3.19,4,4.5,1.65,1.43,3.6,2.73,5.84,2.9,2.45.19,4.37-1.44,5.56-3.43.61-1.03,1.06-2.16,1.48-3.27.48-1.26.96-2.51,1.21-3.85.15-.8-.22-1.62-1.05-1.85-.73-.2-1.7.25-1.85,1.05-.38,2.04-1.18,4.19-2.18,6.02-.38.7-.83,1.42-1.48,1.9-.37.27-.52.33-.96.42-.21.04-.05.03-.33.02-.06,0-.53-.03-.35,0-1.53-.2-2.93-1.27-4.09-2.31-1.23-1.11-2.36-2.39-3.23-3.63-.46-.66-1.31-.97-2.05-.54-.66.38-1.01,1.39-.54,2.05h0Z"/>
  <g>
    <path class="cls-3" d="m87.74,42.32c-.16,3.32-.09,9.24-2.33,11.96-1.8,2.19-6.1.97-8.26-.26-3.19-1.82-4.65-4.58-5.64-7.98-1.18-4.07-2.24-8.14-2.72-12.34-.23-1.99-.9-14.82,1.14-18.81,1.85-3.63,4.42-4.9,8.58-3.58,5.07,1.61,9.42,11.52,9.42,18.74,0,3.31-.16,11.49-.19,12.28Z"/>
    <path class="cls-2" d="m86.24,42.32c-.15,3.29.12,7.25-1.49,10.24s-6.46.76-8.36-.9c-3.17-2.77-3.95-7.58-4.88-11.46-.73-3.06-1.25-6.12-1.39-9.26s-.16-6.07.02-9.1c.17-2.69.37-5.56,2.03-7.73,1.82-2.38,5.23-2.24,7.5-.5,2.74,2.1,4.38,5.71,5.43,8.9,1.22,3.72,1.36,7.33,1.31,11.2-.04,2.87-.04,5.75-.16,8.62-.08,1.93,2.92,1.93,3,0,.13-2.97.13-5.95.17-8.92.05-3.89-.12-7.6-1.31-11.35s-3.14-7.97-6.32-10.57c-2.76-2.25-7.19-3.11-10.23-.92s-3.81,5.46-4.21,8.8c-.42,3.51-.4,7.09-.28,10.62s.61,7.06,1.43,10.55c1.05,4.51,2.05,9.85,5.63,13.12,2.86,2.61,9.01,5.14,12.24,1.78,1.54-1.6,2.08-4.05,2.38-6.17.33-2.31.38-4.63.48-6.95.09-1.93-2.91-1.93-3,0Z"/>
  </g>
  <g>
    <path class="cls-3" d="m23.22,32.41c-.54-4-4.29-11.06-7.25-13.8-2.55-2.36-6.24-2.75-9.43-1.26C.37,20.23,1.42,36.69,1.85,40.47c.56,4.95,6.01,18.52,9.4,20.22,3.92,1.97,6.51,1.95,8.54-2.56,2.28-5.06,3.15-11.2,3.8-16.66.11-.93.12-5.55-.36-9.06Z"/>
    <path class="cls-2" d="m24.66,32.01c-.63-4.23-2.97-8.55-5.49-11.95-1.26-1.71-2.67-3.28-4.64-4.19-2.23-1.02-4.8-1.17-7.14-.45C.44,17.54.07,26.99,0,32.99c-.03,2.54.05,5.12.36,7.65.43,3.47,1.73,6.88,3.05,10.1s2.89,6.82,5.21,9.62c1.98,2.38,6.09,3.95,9.02,2.54,2.29-1.1,3.36-3.7,4.21-5.92,1.08-2.83,1.76-5.8,2.27-8.77.44-2.55.93-5.2.99-7.79s-.07-5.36-.41-8c-.24-1.89-3.25-1.91-3,0,.5,3.85.56,7.7.05,11.55-.64,4.75-1.4,10.01-3.71,14.28-.68,1.25-1.57,2.33-3.11,2.18-1.21-.12-2.85-.8-3.55-1.48-2.03-1.98-3.28-4.93-4.43-7.48-1.35-3.02-2.54-6.18-3.31-9.41-.46-1.93-.55-3.94-.62-6.04-.1-2.99-.06-6.03.35-9,.34-2.49.87-5.54,2.65-7.45,1.19-1.29,3.21-1.69,4.9-1.58,2.24.15,3.94,1.44,5.3,3.14,2.59,3.23,4.91,7.55,5.53,11.68.29,1.9,3.18,1.09,2.89-.8Z"/>
  </g>
  <path class="cls-2" d="m11.37,42.38c.17.1-.25-.3-.05-.03.06.09.16.17.23.25.03.04.27.34.06.07.08.11.16.22.24.33.41.57.79,1.16,1.18,1.74.64.95,1.32,2.27,2.36,2.83s2.73-.4,2.2-1.69c-.87-2.12-1.4-4.41-1.78-6.67-.2-1.17-.34-2.31-.4-3.52-.03-.57-.03-1.14,0-1.7.03-.67.03-.62.15-1.18.38-1.71-1.76-2.53-2.74-1.16-.64.9-1.04,1.98-1.41,3-.48,1.31-.86,2.67-1.19,4.03-.34,1.43-.61,2.87-.81,4.32-.14,1.08-.27,2.18-.15,3.27.21,1.91,2.82,1.95,3,0-.04.45.01-.04.04-.14.04-.17.1-.33.16-.49.06-.16.07-.17,0-.03.03-.07.06-.14.09-.2.08-.16.16-.33.25-.49.4-.73.87-1.41,1.37-2.01.58-.69,1.22-1.37,1.95-1.91.49-.37,1.11-.71,1.66-.84l-.8-2.89c-3.39.92-6.94-.51-10.31-.89-1.54-.17-1.96,2.09-.76,2.8,1.82,1.06,3.61,2.17,5.45,3.2,1.69.95,3.2-1.64,1.51-2.59-1.84-1.03-3.63-2.14-5.45-3.2l-.76,2.8c3.73.42,7.34,1.8,11.11.78,1.87-.51,1.08-3.35-.8-2.89-2.03.49-3.76,2.1-5.05,3.67s-2.5,3.32-2.68,5.34h3c-.26-2.36.3-4.48.85-6.8.31-1.28.67-2.56,1.11-3.81.35-.99.52-1.57,1.19-2.51l-2.74-1.16c-.55,2.48-.22,5.13.19,7.6s.93,4.81,1.85,7.06l2.2-1.69c-.25-.13.07.13.06.05,0-.05-.19-.2-.23-.24-.08-.09-.15-.17-.22-.26.21.26-.04-.06-.08-.11-.4-.57-.79-1.15-1.18-1.73-.67-1-1.34-2.25-2.38-2.9-1.64-1.02-3.15,1.57-1.51,2.59Z"/>
  <path class="cls-2" d="m78.52,37.57c1.15,1.01,1.42,2.5,2.1,3.91.76,1.56,3.16.45,2.74-1.16-.53-2.03-.85-4.11-1.41-6.14s-1.43-4.36-3.06-5.91c-.81-.77-2.21-.45-2.51.66-.53,2-.38,4.26-.4,6.31-.01,1.14-.02,2.29-.09,3.43-.01.25-.03.5-.05.75-.01.15-.13.78-.03.3-.04.16-.05.33-.09.5-.02.07-.04.14-.05.21-.07.35.13-.27.05-.08-.34.73-.2,1.62.54,2.05.69.4,1.66.18,2.05-.54.37-.68.52-1.48.7-2.22.22-.94.43-1.88.7-2.81.05-.18.11-.36.17-.54.03-.09.07-.18.1-.28-.03.1-.16.28-.03.09.03-.05.05-.1.08-.15.1-.16-.3.3.11-.11.23-.23.45-.47.71-.67,1-.79,2.29-1.41,3.32-2.27.57-.47.55-1.43.12-1.97-.48-.61-1.25-.73-1.94-.39-.05.02-.53.25-.25.13-.18.08-.36.14-.55.21-.35.12-.7.23-1.06.33-.84.23-1.69.4-2.54.53-1.41.22-3.15.35-4.71.26-1.69-.09-2.03,2.54-.4,2.95,2.02.5,4.06,1.3,5.68,2.62.63.51,1.51.61,2.12,0,.53-.53.63-1.6,0-2.12-2.02-1.66-4.46-2.76-7-3.39l-.4,2.95c1.84.1,3.69-.09,5.51-.37s3.52-.69,5.11-1.49l-1.82-2.36c-1.03.86-2.28,1.41-3.32,2.27-.9.74-1.46,1.55-1.81,2.65-.29.92-.5,1.88-.72,2.82-.1.42-.2.84-.31,1.26-.05.17-.1.34-.15.51,0,0-.07.22-.08.21,0,0,.19-.4.06-.15l2.59,1.51c.41-.87.5-1.82.57-2.78.08-1.13.09-2.27.11-3.41.01-1.2.02-2.4.06-3.59.02-.51.04-1.03.09-1.54,0-.1.02-.2.03-.3.03-.34-.07.35,0,.03.04-.18.06-.36.11-.54l-2.51.66c.17.16.32.32.47.49.18.2-.03-.05.07.08.07.1.14.19.2.29.27.41.51.85.71,1.3.14.31.29.68.45,1.18s.33,1.04.47,1.56c.51,1.92.82,3.9,1.32,5.82l2.74-1.16c-.71-1.46-1.19-3.31-2.57-4.52-.61-.53-1.52-.6-2.12,0-.54.54-.61,1.59,0,2.12Z"/>
</svg>